<svg xmlns="http://www.w3.org/2000/svg" viewBox="0 0 141.73 141.73">
  <path d="M60.09 55.695c0-6.163-4.996-11.157-11.157-11.157-6.163 0-11.158 4.994-11.158 11.157v6.042l22.314-4.944v-1.098z"/>
  <path d="M70.38 8.904c-34.435 0-62.45 28.016-62.45 62.453 0 34.435 28.015 62.45 62.45 62.45 34.438 0 62.454-28.015 62.454-62.45 0-34.437-28.017-62.453-62.453-62.453zm8.465 108.855c-.82.74-1.623 1.39-2.387 1.95-3.482 2.56-7.508 5-11.965 7.24-.332.17-.686.25-1.034.25-.85 0-1.66-.47-2.07-1.27-.57-1.14-.12-2.52 1.02-3.1 4.22-2.13 8.03-4.43 11.3-6.84.64-.47 1.32-1.03 2.03-1.67.94-.86 2.4-.78 3.25.17.85.94.77 2.4-.17 3.25zm4.43-39.93c-.126.37-.476.61-.85.61-.094 0-.188-.02-.28-.05-1.056-.35-3.153-.99-5.37-1.35-.486-.08-.817-.54-.74-1.03.08-.49.543-.81 1.025-.74 2.34.37 4.542 1.05 5.646 1.41.47.15.723.66.57 1.13zm10.76 23.21c-.347.59-.7 1.12-1.038 1.58-1.556 2.11-3.468 4.25-5.675 6.35-.356.33-.813.5-1.27.5-.487 0-.974-.19-1.337-.57-.7-.74-.67-1.91.068-2.61 2.052-1.95 3.814-3.92 5.242-5.86.274-.37.55-.8.828-1.27.514-.88 1.645-1.18 2.52-.66.88.51 1.176 1.64.66 2.52zm-8.128-22.08c.213-.58.86-.88 1.434-.67 1.75.63 3.13 1.14 4.86 2.28.52.34.66 1.03.32 1.55-.21.33-.57.5-.93.5-.21 0-.42-.06-.61-.19-1.5-1-2.71-1.44-4.38-2.06-.58-.21-.87-.856-.66-1.43zm10.94 13.46c-.19.53-.696.87-1.236.87-.14 0-.29-.03-.43-.08-.68-.24-1.04-1-.79-1.68.51-1.44.97-3.48.26-5.04-.08-.17-.16-.34-.26-.5-.36-.63-.14-1.43.48-1.79.63-.36 1.43-.15 1.79.48.14.234.26.474.38.722.86 1.89.81 4.245-.17 7zm.687-18.86c-9.486-2.86-23.662-5.57-28.702-6.6l47.78-7.89c-2.705-24.06-15.15-34.66-46.77-28.76-17.902 3.34-26.25 7.34-30.16 10.28-5.05 3.12-8.432 8.68-8.432 15.04v8l3.688-.82v-7.18c0-7.73 6.266-14 13.995-14 7.728 0 13.994 6.26 13.994 13.99v9.86c-1.202-.39-2.137-.78-2.837-1.19v-5.04C18.154 71.34 53.935 78.7 53.935 78.7c51.637 10.14-6.953 29.35-22.033 33.89-11.048-10.31-17.974-24.984-17.974-41.254 0-31.127 25.324-56.45 56.452-56.45s56.453 25.326 56.453 56.454c0 11.793-3.642 22.75-9.852 31.817 1.23-10.15-2.03-24.33-19.44-29.59zm-24.15 1.77c-.07.39-.408.66-.79.66-.048 0-.097-.01-.146-.02-1.454-.27-2.926-.54-4.415-.83-.437-.09-.723-.51-.638-.948.083-.437.504-.73.942-.637 1.483.287 2.95.56 4.398.82.44.08.73.5.65.94zM59.1 72.03c.12-.35.498-.532.853-.42 1.268.43 2.72.83 4.575 1.27.36.09.583.45.498.81-.073.31-.35.518-.652.518-.05 0-.104-.007-.156-.018-1.895-.45-3.387-.864-4.695-1.308-.352-.12-.54-.5-.42-.85zm-.792-11.12c-.014.008-.03.01-.044.01-.056 0-.107-.034-.127-.09-.024-.07.012-.146.083-.17.606-.21.617-.213 1.208-.305l.02-.01c.065 0 .123.05.133.11.02.075-.03.14-.11.156-.57.09-.57.09-1.16.3zm-5.184 7.81c.222-.252.607-.28.86-.06.66.57 1.582 1.13 2.743 1.66.307.145.442.506.3.81-.102.228-.323.36-.554.36-.086 0-.172-.02-.254-.057-1.27-.58-2.29-1.2-3.04-1.85-.26-.22-.28-.606-.06-.86zm-.714-5.042c-.057.043-.123.062-.19.062-.093 0-.186-.04-.247-.122-.104-.135-.077-.33.06-.432.465-.357 1.052-.71 1.745-1.05.153-.076.34-.01.416.142.075.152.012.34-.14.415-.658.325-1.21.656-1.645.984zm2.987-2.07c-.04-.1.008-.22.112-.26.37-.15.82-.28 1.32-.39.1-.03.21.042.24.15.02.11-.05.216-.16.24-.48.105-.91.233-1.27.377-.03.01-.05.01-.08.01-.08 0-.16-.047-.19-.125zm-3.782 5.516c.134.18.095.44-.087.57-.073.054-.16.08-.243.08-.126 0-.25-.057-.33-.166-.684-.93-.787-1.9-.306-2.882.09-.204.34-.283.54-.19.2.1.29.35.19.55-.34.7-.27 1.367.23 2.04z"/>
</svg>
